<?xml version="1.0" encoding="UTF-8"?>
<svg id="Layer_1" data-name="Layer 1" xmlns="http://www.w3.org/2000/svg" viewBox="0 0 60.96 69.89">
  <defs>
    <style>
      .cls-1 {
        fill: #ef4237;
      }

      .cls-2 {
        fill: #be202e;
      }
    </style>
  </defs>
  <path class="cls-2" d="M1.91,18.12c-.36.62-.58,1.32-.58,1.94v29.77c0,.63.22,1.33.58,1.94.36.62.85,1.16,1.39,1.47l25.78,14.89c.54.31,1.26.47,1.97.47v-33.66L1.91,18.12Z"/>
  <path class="cls-1" d="M58.81,16.64L33.03,1.76c-.54-.31-1.26-.47-1.97-.47s-1.43.16-1.97.47l-1.18.68L3.3,16.64c-.54.31-1.04.85-1.39,1.47l29.15,16.83,27.75-16.02c1.09-.63,1.09-1.65,0-2.28Z"/>
  <path class="cls-1" d="M33.03,68.13l25.78-14.89c1.09-.63,1.09-1.65,0-2.28l-27.75-16.02v33.66c.71,0,1.43-.16,1.97-.47Z"/>
</svg>